<svg width="47" height="47" viewBox="0 0 47 47" fill="none" xmlns="http://www.w3.org/2000/svg">
<path d="M8.91504 36.4661L27.6122 17.7677M17.5781 27.8025L17.9002 27.5426C18.2127 27.2715 18.4957 26.9677 18.7444 26.6362C20.6768 24.0595 20.1546 20.4042 17.5781 18.4717L17.256 18.7316C16.9436 19.0027 16.6605 19.3065 16.4119 19.638C14.4795 22.2146 15.0017 25.87 17.5781 27.8025ZM17.5781 27.8025L17.8381 28.1246C18.1091 28.4371 18.4129 28.7202 18.7444 28.9689C21.3209 30.9013 24.976 30.3791 26.9083 27.8025L26.6484 27.4804C26.3773 27.1679 26.0735 26.8848 25.742 26.6361C23.1655 24.7037 19.5105 25.2259 17.5781 27.8025ZM22.2432 23.1371L22.5653 22.8771C22.8778 22.6061 23.1608 22.3023 23.4095 21.9708C25.3418 19.3941 24.8197 15.7388 22.2432 13.8063L21.9211 14.0662C21.6087 14.3373 21.3256 14.6411 21.077 14.9726C19.1446 17.5492 19.6667 21.2046 22.2432 23.1371ZM22.2432 23.1371L22.5032 23.4592C22.7742 23.7717 23.078 24.0548 23.4095 24.3035C25.986 26.2359 29.641 25.7137 31.5734 23.1371L31.3134 22.815C31.0424 22.5025 30.7386 22.2194 30.4071 21.9707C27.8306 20.0383 24.1755 20.5605 22.2432 23.1371ZM26.9083 18.4717L27.2304 18.2117C27.5428 17.9407 27.8259 17.6369 28.0745 17.3054C30.0069 14.7287 29.4848 11.0734 26.9083 9.14089L26.5862 9.40084C26.2737 9.67188 25.9907 9.97566 25.742 10.3072C23.8097 12.8838 24.3318 16.5392 26.9083 18.4717ZM26.9083 18.4717L27.1682 18.7938C27.4393 19.1063 27.743 19.3894 28.0746 19.6381C30.651 21.5705 34.3061 21.0483 36.2384 18.4717L35.9785 18.1496C35.7075 17.8371 35.4037 17.554 35.0721 17.3053C32.4957 15.3729 28.8406 15.8951 26.9083 18.4717ZM12.8026 32.5783L13.1247 32.3184C13.4372 32.0473 13.7202 31.7435 13.9689 31.412C15.9012 28.8354 15.3791 25.18 12.8026 23.2475L12.4805 23.5075C12.168 23.7785 11.885 24.0823 11.6364 24.4138C9.70398 26.9905 10.2261 30.6458 12.8026 32.5783ZM12.8026 32.5783L13.0625 32.9004C13.3336 33.2129 13.6374 33.496 13.9689 33.7447C16.5454 35.6771 20.2004 35.1549 22.1328 32.5783L21.8728 32.2562C21.6018 31.9437 21.298 31.6606 20.9665 31.4119C18.39 29.4795 14.7349 30.0017 12.8026 32.5783ZM36.4097 8.97072C36.8652 12.1592 34.6499 15.1131 31.4617 15.5686C31.0514 15.6272 30.6365 15.6419 30.2239 15.6126L29.8123 15.5685C29.3568 12.3801 31.5722 9.4262 34.7604 8.97072C35.3074 8.89257 35.8627 8.89257 36.4097 8.97072Z" stroke="#87B68C" stroke-linecap="round"/>
<path d="M38.6737 1.19922H7.81316C4.16092 1.19922 1.2002 4.15995 1.2002 7.81219V38.6727C1.2002 42.3249 4.16092 45.2857 7.81316 45.2857H38.6737C42.3259 45.2857 45.2867 42.3249 45.2867 38.6727V7.81219C45.2867 4.15995 42.3259 1.19922 38.6737 1.19922Z" stroke="#EFF5F1" stroke-width="2.4"/>
</svg>
